<mxfile host="Electron" modified="2023-06-20T14:18:44.696Z" agent="Mozilla/5.0 (Windows NT 10.0; Win64; x64) AppleWebKit/537.36 (KHTML, like Gecko) draw.io/21.4.0 Chrome/112.0.5615.204 Electron/24.5.1 Safari/537.36" etag="ZV_Ltt3qH1Ao3xNLIgbX" version="21.4.0" type="device">
  <diagram id="C5RBs43oDa-KdzZeNtuy" name="Page-1">
    <mxGraphModel dx="2711" dy="2445" grid="1" gridSize="10" guides="1" tooltips="1" connect="1" arrows="1" fold="1" page="1" pageScale="1" pageWidth="827" pageHeight="1169" math="0" shadow="0">
      <root>
        <mxCell id="WIyWlLk6GJQsqaUBKTNV-0" />
        <mxCell id="WIyWlLk6GJQsqaUBKTNV-1" parent="WIyWlLk6GJQsqaUBKTNV-0" />
        <mxCell id="WIyWlLk6GJQsqaUBKTNV-2" value="" style="rounded=0;html=1;jettySize=auto;orthogonalLoop=1;fontSize=11;endArrow=block;endFill=0;endSize=8;strokeWidth=1;shadow=0;labelBackgroundColor=none;edgeStyle=orthogonalEdgeStyle;fontColor=default;strokeColor=#0B4D6A;" parent="WIyWlLk6GJQsqaUBKTNV-1" source="WIyWlLk6GJQsqaUBKTNV-3" edge="1">
          <mxGeometry relative="1" as="geometry">
            <mxPoint x="150" y="-110" as="targetPoint" />
          </mxGeometry>
        </mxCell>
        <mxCell id="WIyWlLk6GJQsqaUBKTNV-3" value="输入命题公式" style="rounded=1;whiteSpace=wrap;html=1;fontSize=12;glass=0;strokeWidth=1;shadow=0;labelBackgroundColor=none;fillColor=#09555B;strokeColor=#BAC8D3;fontColor=#EEEEEE;" parent="WIyWlLk6GJQsqaUBKTNV-1" vertex="1">
          <mxGeometry x="90" y="-190" width="120" height="40" as="geometry" />
        </mxCell>
        <mxCell id="55xBAi4lp9BMzCdvoTTx-1" value="用户" style="strokeWidth=2;html=1;shape=mxgraph.flowchart.display;whiteSpace=wrap;labelBackgroundColor=none;fillColor=#09555B;strokeColor=#BAC8D3;fontColor=#EEEEEE;" parent="WIyWlLk6GJQsqaUBKTNV-1" vertex="1">
          <mxGeometry x="290" y="-200" width="100" height="60" as="geometry" />
        </mxCell>
        <mxCell id="55xBAi4lp9BMzCdvoTTx-2" value="" style="endArrow=classic;html=1;rounded=0;labelBackgroundColor=none;fontColor=default;strokeColor=#0B4D6A;" parent="WIyWlLk6GJQsqaUBKTNV-1" edge="1">
          <mxGeometry relative="1" as="geometry">
            <mxPoint x="290" y="-170.5" as="sourcePoint" />
            <mxPoint x="210" y="-170.5" as="targetPoint" />
            <Array as="points">
              <mxPoint x="260" y="-170.5" />
            </Array>
          </mxGeometry>
        </mxCell>
        <mxCell id="55xBAi4lp9BMzCdvoTTx-6" value="读取命题公式" style="rounded=1;whiteSpace=wrap;html=1;labelBackgroundColor=none;fillColor=#09555B;strokeColor=#BAC8D3;fontColor=#EEEEEE;" parent="WIyWlLk6GJQsqaUBKTNV-1" vertex="1">
          <mxGeometry x="90" y="-110" width="120" height="30" as="geometry" />
        </mxCell>
        <mxCell id="55xBAi4lp9BMzCdvoTTx-7" value="" style="rounded=0;html=1;jettySize=auto;orthogonalLoop=1;fontSize=11;endArrow=block;endFill=0;endSize=8;strokeWidth=1;shadow=0;labelBackgroundColor=none;edgeStyle=orthogonalEdgeStyle;fontColor=default;strokeColor=#0B4D6A;" parent="WIyWlLk6GJQsqaUBKTNV-1" edge="1">
          <mxGeometry relative="1" as="geometry">
            <mxPoint x="150" y="-150" as="sourcePoint" />
            <mxPoint x="150" y="-110" as="targetPoint" />
          </mxGeometry>
        </mxCell>
        <mxCell id="55xBAi4lp9BMzCdvoTTx-8" value="" style="rounded=0;html=1;jettySize=auto;orthogonalLoop=1;fontSize=11;endArrow=block;endFill=0;endSize=8;strokeWidth=1;shadow=0;labelBackgroundColor=none;edgeStyle=orthogonalEdgeStyle;fontColor=default;strokeColor=#0B4D6A;" parent="WIyWlLk6GJQsqaUBKTNV-1" edge="1">
          <mxGeometry relative="1" as="geometry">
            <mxPoint x="149.5" y="-80" as="sourcePoint" />
            <mxPoint x="149.5" y="-40" as="targetPoint" />
          </mxGeometry>
        </mxCell>
        <mxCell id="55xBAi4lp9BMzCdvoTTx-9" value="解析命题公式" style="rounded=1;whiteSpace=wrap;html=1;labelBackgroundColor=none;fillColor=#09555B;strokeColor=#BAC8D3;fontColor=#EEEEEE;" parent="WIyWlLk6GJQsqaUBKTNV-1" vertex="1">
          <mxGeometry x="90" y="-40" width="120" height="30" as="geometry" />
        </mxCell>
        <mxCell id="55xBAi4lp9BMzCdvoTTx-10" value="" style="strokeWidth=2;html=1;shape=mxgraph.flowchart.annotation_2;align=left;labelPosition=right;pointerEvents=1;labelBackgroundColor=none;fillColor=#09555B;strokeColor=#BAC8D3;fontColor=#EEEEEE;" parent="WIyWlLk6GJQsqaUBKTNV-1" vertex="1">
          <mxGeometry x="210" y="-70" width="50" height="100" as="geometry" />
        </mxCell>
        <mxCell id="55xBAi4lp9BMzCdvoTTx-11" value="中缀表达式" style="strokeWidth=2;html=1;shape=mxgraph.flowchart.start_1;whiteSpace=wrap;labelBackgroundColor=none;fillColor=#09555B;strokeColor=#BAC8D3;fontColor=#EEEEEE;" parent="WIyWlLk6GJQsqaUBKTNV-1" vertex="1">
          <mxGeometry x="260" y="-100" width="90" height="50" as="geometry" />
        </mxCell>
        <mxCell id="55xBAi4lp9BMzCdvoTTx-12" value="" style="rounded=0;html=1;jettySize=auto;orthogonalLoop=1;fontSize=11;endArrow=block;endFill=0;endSize=8;strokeWidth=1;shadow=0;labelBackgroundColor=none;edgeStyle=orthogonalEdgeStyle;fontColor=default;strokeColor=#0B4D6A;" parent="WIyWlLk6GJQsqaUBKTNV-1" edge="1">
          <mxGeometry relative="1" as="geometry">
            <mxPoint x="149.5" y="-80" as="sourcePoint" />
            <mxPoint x="149.5" y="-40" as="targetPoint" />
          </mxGeometry>
        </mxCell>
        <mxCell id="55xBAi4lp9BMzCdvoTTx-14" value="" style="endArrow=classic;html=1;rounded=0;labelBackgroundColor=none;fontColor=default;strokeColor=#0B4D6A;" parent="WIyWlLk6GJQsqaUBKTNV-1" edge="1">
          <mxGeometry width="50" height="50" relative="1" as="geometry">
            <mxPoint x="350" y="-75.5" as="sourcePoint" />
            <mxPoint x="410" y="-75.5" as="targetPoint" />
          </mxGeometry>
        </mxCell>
        <mxCell id="55xBAi4lp9BMzCdvoTTx-15" value="后缀表达式" style="strokeWidth=2;html=1;shape=mxgraph.flowchart.start_1;whiteSpace=wrap;labelBackgroundColor=none;fillColor=#09555B;strokeColor=#BAC8D3;fontColor=#EEEEEE;" parent="WIyWlLk6GJQsqaUBKTNV-1" vertex="1">
          <mxGeometry x="414" y="-100" width="90" height="50" as="geometry" />
        </mxCell>
        <mxCell id="55xBAi4lp9BMzCdvoTTx-26" value="" style="edgeStyle=orthogonalEdgeStyle;rounded=0;orthogonalLoop=1;jettySize=auto;html=1;labelBackgroundColor=none;fontColor=default;strokeColor=#0B4D6A;" parent="WIyWlLk6GJQsqaUBKTNV-1" source="55xBAi4lp9BMzCdvoTTx-23" edge="1">
          <mxGeometry relative="1" as="geometry">
            <mxPoint x="465" y="25" as="targetPoint" />
          </mxGeometry>
        </mxCell>
        <mxCell id="55xBAi4lp9BMzCdvoTTx-23" value="栈" style="label;whiteSpace=wrap;html=1;image=img/clipart/Gear_128x128.png;labelBackgroundColor=none;fillColor=#09555B;strokeColor=#BAC8D3;fontColor=#EEEEEE;" parent="WIyWlLk6GJQsqaUBKTNV-1" vertex="1">
          <mxGeometry x="260" width="110" height="50" as="geometry" />
        </mxCell>
        <mxCell id="55xBAi4lp9BMzCdvoTTx-33" value="" style="edgeStyle=orthogonalEdgeStyle;rounded=0;orthogonalLoop=1;jettySize=auto;html=1;labelBackgroundColor=none;fontColor=default;strokeColor=#0B4D6A;" parent="WIyWlLk6GJQsqaUBKTNV-1" source="55xBAi4lp9BMzCdvoTTx-27" target="55xBAi4lp9BMzCdvoTTx-32" edge="1">
          <mxGeometry relative="1" as="geometry" />
        </mxCell>
        <mxCell id="55xBAi4lp9BMzCdvoTTx-27" value="命题变元编号" style="ellipse;whiteSpace=wrap;html=1;labelBackgroundColor=none;fillColor=#09555B;strokeColor=#BAC8D3;fontColor=#EEEEEE;" parent="WIyWlLk6GJQsqaUBKTNV-1" vertex="1">
          <mxGeometry x="460" y="-15" width="120" height="80" as="geometry" />
        </mxCell>
        <mxCell id="55xBAi4lp9BMzCdvoTTx-32" value="变量名" style="ellipse;whiteSpace=wrap;html=1;labelBackgroundColor=none;fillColor=#09555B;strokeColor=#BAC8D3;fontColor=#EEEEEE;" parent="WIyWlLk6GJQsqaUBKTNV-1" vertex="1">
          <mxGeometry x="660" y="-15" width="120" height="80" as="geometry" />
        </mxCell>
        <mxCell id="55xBAi4lp9BMzCdvoTTx-36" value="" style="endArrow=classic;html=1;rounded=0;labelBackgroundColor=none;fontColor=default;strokeColor=#0B4D6A;" parent="WIyWlLk6GJQsqaUBKTNV-1" edge="1">
          <mxGeometry width="50" height="50" relative="1" as="geometry">
            <mxPoint x="660" y="40" as="sourcePoint" />
            <mxPoint x="580" y="40" as="targetPoint" />
          </mxGeometry>
        </mxCell>
        <mxCell id="rrMcokWD1Ost36btMSAt-0" value="" style="rounded=0;html=1;jettySize=auto;orthogonalLoop=1;fontSize=11;endArrow=block;endFill=0;endSize=8;strokeWidth=1;shadow=0;labelBackgroundColor=none;edgeStyle=orthogonalEdgeStyle;fontColor=default;strokeColor=#0B4D6A;" parent="WIyWlLk6GJQsqaUBKTNV-1" edge="1">
          <mxGeometry relative="1" as="geometry">
            <mxPoint x="149.5" y="-80" as="sourcePoint" />
            <mxPoint x="149.5" y="-40" as="targetPoint" />
          </mxGeometry>
        </mxCell>
        <mxCell id="rrMcokWD1Ost36btMSAt-1" value="" style="rounded=0;html=1;jettySize=auto;orthogonalLoop=1;fontSize=11;endArrow=block;endFill=0;endSize=8;strokeWidth=1;shadow=0;labelBackgroundColor=none;edgeStyle=orthogonalEdgeStyle;fontColor=default;strokeColor=#0B4D6A;" parent="WIyWlLk6GJQsqaUBKTNV-1" edge="1">
          <mxGeometry relative="1" as="geometry">
            <mxPoint x="149.5" y="-10" as="sourcePoint" />
            <mxPoint x="149.5" y="30" as="targetPoint" />
          </mxGeometry>
        </mxCell>
        <mxCell id="rrMcokWD1Ost36btMSAt-3" value="&lt;font style=&quot;font-size: 18px;&quot;&gt;生成真值表&lt;/font&gt;" style="rounded=1;whiteSpace=wrap;html=1;labelBackgroundColor=none;fillColor=#09555B;strokeColor=#BAC8D3;fontColor=#EEEEEE;" parent="WIyWlLk6GJQsqaUBKTNV-1" vertex="1">
          <mxGeometry x="90" y="30" width="120" height="60" as="geometry" />
        </mxCell>
        <mxCell id="rrMcokWD1Ost36btMSAt-5" value="" style="strokeWidth=2;html=1;shape=mxgraph.flowchart.annotation_2;align=left;labelPosition=right;pointerEvents=1;rotation=90;labelBackgroundColor=none;fillColor=#09555B;strokeColor=#BAC8D3;fontColor=#EEEEEE;" parent="WIyWlLk6GJQsqaUBKTNV-1" vertex="1">
          <mxGeometry x="125" y="7.5" width="50" height="212.5" as="geometry" />
        </mxCell>
        <mxCell id="rrMcokWD1Ost36btMSAt-6" value="&lt;font style=&quot;font-size: 14px;&quot;&gt;找出所有取值为1或0的行&lt;/font&gt;" style="rounded=1;whiteSpace=wrap;html=1;labelBackgroundColor=none;fillColor=#09555B;strokeColor=#BAC8D3;fontColor=#EEEEEE;" parent="WIyWlLk6GJQsqaUBKTNV-1" vertex="1">
          <mxGeometry x="200" y="140" width="120" height="60" as="geometry" />
        </mxCell>
        <mxCell id="rrMcokWD1Ost36btMSAt-8" value="" style="endArrow=classic;html=1;rounded=0;labelBackgroundColor=none;fontColor=default;strokeColor=#0B4D6A;" parent="WIyWlLk6GJQsqaUBKTNV-1" edge="1">
          <mxGeometry width="50" height="50" relative="1" as="geometry">
            <mxPoint x="660" y="40" as="sourcePoint" />
            <mxPoint x="580" y="40" as="targetPoint" />
          </mxGeometry>
        </mxCell>
        <mxCell id="rrMcokWD1Ost36btMSAt-9" value="" style="endArrow=classic;html=1;rounded=0;labelBackgroundColor=none;fontColor=default;strokeColor=#0B4D6A;" parent="WIyWlLk6GJQsqaUBKTNV-1" edge="1">
          <mxGeometry width="50" height="50" relative="1" as="geometry">
            <mxPoint x="264.5" y="200" as="sourcePoint" />
            <mxPoint x="264.5" y="270" as="targetPoint" />
          </mxGeometry>
        </mxCell>
        <mxCell id="rrMcokWD1Ost36btMSAt-10" value="转化" style="text;html=1;strokeColor=#6c8ebf;fillColor=#dae8fc;align=center;verticalAlign=middle;whiteSpace=wrap;rounded=0;rotation=0;labelBackgroundColor=none;" parent="WIyWlLk6GJQsqaUBKTNV-1" vertex="1">
          <mxGeometry x="275" y="220" width="60" height="30" as="geometry" />
        </mxCell>
        <mxCell id="rrMcokWD1Ost36btMSAt-11" value="逻辑表达式" style="rounded=1;whiteSpace=wrap;html=1;labelBackgroundColor=none;fillColor=#09555B;strokeColor=#BAC8D3;fontColor=#EEEEEE;" parent="WIyWlLk6GJQsqaUBKTNV-1" vertex="1">
          <mxGeometry x="205" y="270" width="120" height="40" as="geometry" />
        </mxCell>
        <mxCell id="rrMcokWD1Ost36btMSAt-12" value="字符串拼接" style="text;html=1;strokeColor=#6c8ebf;fillColor=#dae8fc;align=center;verticalAlign=middle;whiteSpace=wrap;rounded=0;labelBackgroundColor=none;" parent="WIyWlLk6GJQsqaUBKTNV-1" vertex="1">
          <mxGeometry x="185" y="220" width="60" height="30" as="geometry" />
        </mxCell>
        <mxCell id="rrMcokWD1Ost36btMSAt-13" value="&lt;font style=&quot;font-size: 18px;&quot;&gt;主合取范式/主析取范式&lt;/font&gt;" style="rounded=1;whiteSpace=wrap;html=1;labelBackgroundColor=none;fillColor=#09555B;strokeColor=#BAC8D3;fontColor=#EEEEEE;" parent="WIyWlLk6GJQsqaUBKTNV-1" vertex="1">
          <mxGeometry x="205" y="380" width="120" height="60" as="geometry" />
        </mxCell>
        <mxCell id="rrMcokWD1Ost36btMSAt-14" value="" style="endArrow=classic;html=1;rounded=0;labelBackgroundColor=none;fontColor=default;strokeColor=#0B4D6A;" parent="WIyWlLk6GJQsqaUBKTNV-1" edge="1">
          <mxGeometry width="50" height="50" relative="1" as="geometry">
            <mxPoint x="264.5" y="200" as="sourcePoint" />
            <mxPoint x="264.5" y="270" as="targetPoint" />
          </mxGeometry>
        </mxCell>
        <mxCell id="rrMcokWD1Ost36btMSAt-15" value="" style="endArrow=classic;html=1;rounded=0;labelBackgroundColor=none;fontColor=default;strokeColor=#0B4D6A;" parent="WIyWlLk6GJQsqaUBKTNV-1" edge="1">
          <mxGeometry width="50" height="50" relative="1" as="geometry">
            <mxPoint x="264.5" y="310" as="sourcePoint" />
            <mxPoint x="264.5" y="380" as="targetPoint" />
          </mxGeometry>
        </mxCell>
        <mxCell id="rrMcokWD1Ost36btMSAt-16" value="&lt;font style=&quot;font-size: 14px;&quot;&gt;计算出两个命题公式的真值表&lt;/font&gt;" style="rounded=1;whiteSpace=wrap;html=1;labelBackgroundColor=none;fillColor=#09555B;strokeColor=#BAC8D3;fontColor=#EEEEEE;" parent="WIyWlLk6GJQsqaUBKTNV-1" vertex="1">
          <mxGeometry x="-20" y="140" width="120" height="60" as="geometry" />
        </mxCell>
        <mxCell id="rrMcokWD1Ost36btMSAt-17" value="" style="endArrow=classic;html=1;rounded=0;labelBackgroundColor=none;fontColor=default;strokeColor=#0B4D6A;" parent="WIyWlLk6GJQsqaUBKTNV-1" edge="1">
          <mxGeometry width="50" height="50" relative="1" as="geometry">
            <mxPoint x="40" y="200" as="sourcePoint" />
            <mxPoint x="40" y="270" as="targetPoint" />
          </mxGeometry>
        </mxCell>
        <mxCell id="rrMcokWD1Ost36btMSAt-18" value="&lt;font style=&quot;font-size: 14px;&quot;&gt;逐行比较它们的取值是否相同&lt;/font&gt;" style="rounded=1;whiteSpace=wrap;html=1;labelBackgroundColor=none;fillColor=#09555B;strokeColor=#BAC8D3;fontColor=#EEEEEE;" parent="WIyWlLk6GJQsqaUBKTNV-1" vertex="1">
          <mxGeometry x="-20" y="270" width="120" height="60" as="geometry" />
        </mxCell>
        <mxCell id="rrMcokWD1Ost36btMSAt-19" value="" style="endArrow=classic;html=1;rounded=0;labelBackgroundColor=none;fontColor=default;strokeColor=#0B4D6A;" parent="WIyWlLk6GJQsqaUBKTNV-1" edge="1">
          <mxGeometry width="50" height="50" relative="1" as="geometry">
            <mxPoint x="39.5" y="330" as="sourcePoint" />
            <mxPoint x="39.5" y="400" as="targetPoint" />
          </mxGeometry>
        </mxCell>
        <mxCell id="rrMcokWD1Ost36btMSAt-20" value="&lt;font style=&quot;font-size: 18px;&quot;&gt;判断两个命题公式是否等价&lt;/font&gt;" style="rounded=1;whiteSpace=wrap;html=1;labelBackgroundColor=none;fillColor=#09555B;strokeColor=#BAC8D3;fontColor=#EEEEEE;" parent="WIyWlLk6GJQsqaUBKTNV-1" vertex="1">
          <mxGeometry x="-20" y="400" width="120" height="60" as="geometry" />
        </mxCell>
        <mxCell id="rrMcokWD1Ost36btMSAt-21" value="" style="strokeWidth=2;html=1;shape=mxgraph.flowchart.annotation_2;align=left;labelPosition=right;pointerEvents=1;rotation=-90;labelBackgroundColor=none;fillColor=#09555B;strokeColor=#BAC8D3;fontColor=#EEEEEE;" parent="WIyWlLk6GJQsqaUBKTNV-1" vertex="1">
          <mxGeometry x="135" y="370" width="50" height="245" as="geometry" />
        </mxCell>
        <mxCell id="rrMcokWD1Ost36btMSAt-23" value="&lt;font style=&quot;font-size: 14px;&quot;&gt;输出&lt;/font&gt;" style="rounded=1;whiteSpace=wrap;html=1;labelBackgroundColor=none;fillColor=#09555B;strokeColor=#BAC8D3;fontColor=#EEEEEE;" parent="WIyWlLk6GJQsqaUBKTNV-1" vertex="1">
          <mxGeometry x="100" y="520" width="120" height="30" as="geometry" />
        </mxCell>
        <mxCell id="rrMcokWD1Ost36btMSAt-26" value="" style="endArrow=none;html=1;rounded=0;strokeColor=#0B4D6A;" parent="WIyWlLk6GJQsqaUBKTNV-1" edge="1">
          <mxGeometry width="50" height="50" relative="1" as="geometry">
            <mxPoint x="160" y="690" as="sourcePoint" />
            <mxPoint x="159.5" y="550" as="targetPoint" />
          </mxGeometry>
        </mxCell>
        <mxCell id="rrMcokWD1Ost36btMSAt-27" value="" style="endArrow=none;html=1;rounded=0;strokeColor=#0B4D6A;" parent="WIyWlLk6GJQsqaUBKTNV-1" edge="1">
          <mxGeometry width="50" height="50" relative="1" as="geometry">
            <mxPoint x="-390" y="690" as="sourcePoint" />
            <mxPoint x="159" y="690" as="targetPoint" />
          </mxGeometry>
        </mxCell>
        <mxCell id="rrMcokWD1Ost36btMSAt-29" value="" style="endArrow=none;html=1;rounded=0;strokeColor=#0B4D6A;" parent="WIyWlLk6GJQsqaUBKTNV-1" edge="1">
          <mxGeometry width="50" height="50" relative="1" as="geometry">
            <mxPoint x="-389.5" y="690" as="sourcePoint" />
            <mxPoint x="-390" y="-320" as="targetPoint" />
          </mxGeometry>
        </mxCell>
        <mxCell id="rrMcokWD1Ost36btMSAt-30" value="" style="endArrow=none;html=1;rounded=0;strokeColor=#0B4D6A;" parent="WIyWlLk6GJQsqaUBKTNV-1" edge="1">
          <mxGeometry width="50" height="50" relative="1" as="geometry">
            <mxPoint x="-390" y="-320" as="sourcePoint" />
            <mxPoint x="350" y="-320" as="targetPoint" />
          </mxGeometry>
        </mxCell>
        <mxCell id="rrMcokWD1Ost36btMSAt-33" value="" style="rounded=0;html=1;jettySize=auto;orthogonalLoop=1;fontSize=11;endArrow=block;endFill=0;endSize=8;strokeWidth=1;shadow=0;labelBackgroundColor=none;edgeStyle=orthogonalEdgeStyle;fontColor=default;strokeColor=#0B4D6A;" parent="WIyWlLk6GJQsqaUBKTNV-1" edge="1">
          <mxGeometry relative="1" as="geometry">
            <mxPoint x="350" y="-320" as="sourcePoint" />
            <mxPoint x="350" y="-210" as="targetPoint" />
          </mxGeometry>
        </mxCell>
        <mxCell id="mQNGs7QmPAT9azedBCZd-2" value="Text" style="text;html=1;strokeColor=none;fillColor=none;align=center;verticalAlign=middle;whiteSpace=wrap;rounded=0;" vertex="1" parent="WIyWlLk6GJQsqaUBKTNV-1">
          <mxGeometry x="-570" y="120" width="60" height="30" as="geometry" />
        </mxCell>
      </root>
    </mxGraphModel>
  </diagram>
</mxfile>
